{"title":"Ram Leela 2013 DvdscrRip x264 MP3 [TMB] - Hindi","uid":9213778,"size":789840458,"categoryP":"video","categoryS":"movies","magnet":"?xt=urn:btih:8765cec5e9b1828b288f71e76a632f9ae617a5bb&amp;dn=Ram+Leela+2013+DvdscrRip+x264+MP3+%5BTMB%5D+-+Hindi&amp;tr=udp%3A%2F%2Ftracker.openbittorrent.com%3A80&amp;tr=udp%3A%2F%2Fopen.demonii.com%3A1337&amp;tr=udp%3A%2F%2Ftracker.coppersurfer.tk%3A6969&amp;tr=udp%3A%2F%2Fexodus.desync.com%3A6969","seeders":1,"leechers":0,"uploader":"SJonam","files":2,"time":1384831307,"description":" &lt;a href=&quot;http://i.imgur.com/qjGZmXp.jpg&quot; rel=&quot;nofollow&quot; target=&quot;_NEW&quot;&gt;http://i.imgur.com/qjGZmXp.jpg&lt;/a&gt;\n &lt;a href=&quot;\nhttp://s15.postimg.org/cwvq3jvvf/raamleela_5b.jpg&quot; rel=&quot;nofollow&quot; target=&quot;_NEW&quot;&gt;\nhttp://s15.postimg.org/cwvq3jvvf/raamleela_5b.jpg&lt;/a&gt; &lt;a href=&quot;\nhttp://s15.postimg.org/vfw8bzbbv/vlcsnap_2013_11_19_00h20m18s244.jpg&quot; rel=&quot;nofollow&quot; target=&quot;_NEW&quot;&gt;\nhttp://s15.postimg.org/vfw8bzbbv/vlcsnap_2013_11_19_00h20m18s244.jpg&lt;/a&gt; &lt;a href=&quot;\nhttp://s15.postimg.org/equsg2eqj/vlcsnap_2013_11_19_00h20m24s54.jpg&quot; rel=&quot;nofollow&quot; target=&quot;_NEW&quot;&gt;\nhttp://s15.postimg.org/equsg2eqj/vlcsnap_2013_11_19_00h20m24s54.jpg&lt;/a&gt; &lt;a href=&quot;\nhttp://s15.postimg.org/904m2c6qj/vlcsnap_2013_11_19_00h20m35s160.jpg&quot; rel=&quot;nofollow&quot; target=&quot;_NEW&quot;&gt;\nhttp://s15.postimg.org/904m2c6qj/vlcsnap_2013_11_19_00h20m35s160.jpg&lt;/a&gt; &lt;a href=&quot;\nhttp://s15.postimg.org/pk2aokw0r/vlcsnap_2013_11_19_00h20m39s205.jpg&quot; rel=&quot;nofollow&quot; target=&quot;_NEW&quot;&gt;\nhttp://s15.postimg.org/pk2aokw0r/vlcsnap_2013_11_19_00h20m39s205.jpg&lt;/a&gt; &lt;a href=&quot;\nhttp://s15.postimg.org/i097mj2u3/vlcsnap_2013_11_19_00h21m08s230.jpg&quot; rel=&quot;nofollow&quot; target=&quot;_NEW&quot;&gt;\nhttp://s15.postimg.org/i097mj2u3/vlcsnap_2013_11_19_00h21m08s230.jpg&lt;/a&gt; &lt;a href=&quot;\nhttp://s15.postimg.org/dnao43u3f/vlcsnap_2013_11_19_00h21m17s69.jpg&quot; rel=&quot;nofollow&quot; target=&quot;_NEW&quot;&gt;\nhttp://s15.postimg.org/dnao43u3f/vlcsnap_2013_11_19_00h21m17s69.jpg&lt;/a&gt; &lt;a href=&quot;\nhttp://s15.postimg.org/ul9opy3h7/vlcsnap_2013_11_19_00h21m29s184.jpg&quot; rel=&quot;nofollow&quot; target=&quot;_NEW&quot;&gt;\nhttp://s15.postimg.org/ul9opy3h7/vlcsnap_2013_11_19_00h21m29s184.jpg&lt;/a&gt; &lt;a href=&quot;\nhttp://s15.postimg.org/g9q6l1laz/vlcsnap_2013_11_19_00h21m53s173.jpg&quot; rel=&quot;nofollow&quot; target=&quot;_NEW&quot;&gt;\nhttp://s15.postimg.org/g9q6l1laz/vlcsnap_2013_11_19_00h21m53s173.jpg&lt;/a&gt;\n\nMedia Info - \nGeneral\nComplete name                  : Ram Leela 2013 DvdscrRip x264 MP3 [TMB].avi\nFormat                         : AVI\nFormat/Info                    : Audio Video Interleave\nFile size                      : 746 MiB\nDuration                       : 2h 31mn\nOverall bit rate               : 687 Kbps\nWriting application            : Lavf54.63.104\n\nVideo\nFormat                         : AVC\nFormat/Info                    : Advanced Video Codec\nFormat profile                 : &lt;a class=&quot;__cf_email__&quot; href=&quot;/cdn-cgi/l/email-protection&quot; data-cfemail=&quot;1459757d7a5458273a24&quot;&gt;[email&amp;#160;protected]&lt;/a&gt;&lt;script cf-hash='f9e31' type=&quot;text/javascript&quot;&gt;\n/* &lt;![CDATA[ */!function(){try{var t=&quot;currentScript&quot;in document?document.currentScript:function(){for(var t=document.getElementsByTagName(&quot;script&quot;),e=t.length;e--;)if(t[e].getAttribute(&quot;cf-hash&quot;))return t[e]}();if(t&amp;&amp;t.previousSibling){var e,r,n,i,c=t.previousSibling,a=c.getAttribute(&quot;data-cfemail&quot;);if(a){for(e=&quot;&quot;,r=parseInt(a.substr(0,2),16),n=2;a.length-n;n+=2)i=parseInt(a.substr(n,2),16)^r,e+=String.fromCharCode(i);e=document.createTextNode(e),c.parentNode.replaceChild(e,c)}}}catch(u){}}();/* ]]&gt; */&lt;/script&gt;\nFormat settings, CABAC         : Yes\nFormat settings, ReFrames      : 1 frame\nCodec ID                       : H264\nDuration                       : 2h 31mn\nBit rate                       : 420 Kbps\nWidth                          : 768 pixels\nHeight                         : 420 pixels\nDisplay aspect ratio           : 1.85:1\nFrame rate mode                : Variable\nFrame rate                     : 25.000 fps\nColor space                    : YUV\nChroma subsampling             : 4:2:0\nBit depth                      : 8 bits\nScan type                      : Progressive\nBits/(Pixel*Frame)             : 0.052\nStream size                    : 454 MiB (61%)\nWriting library                : x264 core 129\n\nAudio\nFormat                         : MPEG Audio\nFormat version                 : Version 1\nFormat profile                 : Layer 3\nMode                           : Joint stereo\nMode extension                 : MS Stereo\nCodec ID                       : 55\nCodec ID/Hint                  : MP3\nDuration                       : 2h 31mn\nBit rate mode                  : Constant\nBit rate                       : 256 Kbps\nChannel count                  : 2 channels\nSampling rate                  : 48.0 KHz\nCompression mode               : Lossy\nStream size                    : 278 MiB (37%)\nAlignment                      : Aligned on interleaves\nInterleave, duration           : 24 ms (0.60 video frame)\n\n\nSample in Torrent ;)\n\nRipper : Manojvb\n\nSeeding 24x7... Extreme Seeding...\n\n &lt;a href=&quot;\nhttp://i.imgur.com/pN4eK8w.gif&quot; rel=&quot;nofollow&quot; target=&quot;_NEW&quot;&gt;\nhttp://i.imgur.com/pN4eK8w.gif&lt;/a&gt;","torrent":{"xt":"urn:btih:8765cec5e9b1828b288f71e76a632f9ae617a5bb","amp;dn":"Ram+Leela+2013+DvdscrRip+x264+MP3+%5BTMB%5D+-+Hindi","amp;tr":["udp%3A%2F%2Ftracker.openbittorrent.com%3A80","udp%3A%2F%2Fopen.demonii.com%3A1337","udp%3A%2F%2Ftracker.coppersurfer.tk%3A6969","udp%3A%2F%2Fexodus.desync.com%3A6969"],"infoHash":"8765cec5e9b1828b288f71e76a632f9ae617a5bb","infoHashBuffer":{"type":"Buffer","data":[135,101,206,197,233,177,130,139,40,143,113,231,106,99,47,154,230,23,165,187]},"announce":[],"urlList":[]}}